<?xml version="1.0" standalone="no"?>
<!DOCTYPE svg PUBLIC "-//W3C//DTD SVG 20010904//EN"
 "http://www.w3.org/TR/2001/REC-SVG-20010904/DTD/svg10.dtd">
<svg version="1.0" xmlns="http://www.w3.org/2000/svg"
 width="926.000000pt" height="1280.000000pt" viewBox="0 0 926.000000 1280.000000"
 preserveAspectRatio="xMidYMid meet">
<metadata>
Created by potrace 1.15, written by Peter Selinger 2001-2017
</metadata>
<g transform="translate(0.000000,1280.000000) scale(0.100000,-0.100000)"
fill="#000000" stroke="none">
<path d="M7530 12785 c-712 -70 -874 -94 -957 -145 -52 -31 -66 -70 -73 -210
-4 -69 -11 -133 -15 -142 -8 -19 -20 -24 -203 -67 -117 -28 -172 -51 -172 -70
0 -15 74 -20 185 -12 127 10 175 5 175 -16 0 -28 -21 -53 -63 -74 -40 -21 -57
-35 -57 -51 0 -15 56 -36 114 -43 124 -16 142 -66 118 -333 -8 -93 -12 -180
-8 -195 4 -16 27 -39 63 -64 52 -35 58 -43 73 -98 10 -33 27 -80 38 -105 11
-25 24 -70 27 -100 17 -144 34 -155 229 -145 115 6 135 4 166 -12 51 -26 52
-60 2 -131 -22 -32 -50 -79 -62 -107 -18 -38 -72 -98 -236 -260 -120 -119
-227 -234 -247 -265 -19 -31 -61 -87 -92 -125 -137 -167 -158 -276 -170 -866
l-6 -287 141 -283 142 -283 -6 -185 c-12 -328 -42 -559 -91 -702 -79 -227 -91
-307 -125 -879 -23 -374 -29 -457 -65 -780 -36 -325 -62 -606 -80 -840 -24
-322 -77 -1522 -110 -2455 -22 -625 -44 -865 -99 -1069 -33 -123 -46 -222 -53
-406 l-6 -156 99 -46 c54 -25 119 -50 144 -56 59 -14 214 -29 370 -37 178 -8
349 -24 392 -36 21 -5 43 -19 49 -30 9 -18 5 -27 -38 -68 -26 -25 -111 -89
-188 -141 -148 -100 -225 -164 -225 -187 0 -25 31 -61 62 -72 119 -42 554 27
732 115 79 39 91 40 174 19 110 -28 208 14 264 113 34 60 56 77 111 86 23 4
54 21 77 42 48 44 85 50 360 64 228 12 353 29 450 61 211 68 342 202 396 401
37 139 28 353 -27 613 -16 77 -36 212 -44 300 -26 284 -36 374 -81 740 -24
198 -57 477 -74 620 -16 143 -39 330 -50 415 -11 85 -33 337 -50 560 -94 1249
-154 1779 -260 2310 -27 135 -58 294 -70 353 -11 59 -30 131 -41 160 -12 29
-36 90 -53 137 -38 100 -173 341 -294 525 -125 190 -126 194 -126 410 0 215
17 306 99 550 92 274 118 450 118 790 0 325 -37 582 -109 769 -82 212 -118
320 -156 466 -27 107 -52 177 -79 227 -21 40 -39 84 -39 99 0 69 73 162 203
258 94 69 152 135 189 212 87 185 48 352 -128 544 -122 134 -143 188 -84 220
11 6 69 15 128 20 134 12 215 34 210 58 -5 28 -66 41 -203 42 -155 1 -213 11
-236 39 -10 12 -22 57 -29 108 -26 191 -31 197 -173 200 -56 1 -167 -5 -247
-12z m275 -309 c57 -41 -78 -82 -370 -112 -192 -19 -755 -31 -755 -16 0 12 76
28 175 36 39 3 115 15 170 25 96 19 347 52 525 70 139 14 234 13 255 -3z"/>
<path d="M4435 12255 c-158 -29 -270 -90 -328 -179 -88 -132 -174 -339 -201
-486 -63 -329 64 -558 361 -655 67 -21 106 -65 228 -250 50 -77 94 -145 98
-151 3 -6 -16 -37 -43 -70 -27 -33 -64 -86 -82 -119 -54 -97 -140 -141 -301
-156 -53 -5 -123 -19 -155 -31 -106 -40 -211 -174 -256 -329 -33 -113 -47
-231 -56 -485 -10 -265 -31 -504 -75 -856 -22 -171 -24 -209 -15 -290 40 -348
223 -896 349 -1041 62 -73 64 -120 10 -272 -79 -222 -238 -856 -289 -1152 -47
-280 -76 -663 -120 -1598 -20 -419 -50 -961 -77 -1355 -21 -309 -23 -796 -5
-860 11 -36 32 -64 115 -144 165 -160 208 -182 537 -275 151 -43 179 -54 203
-81 35 -39 34 -72 -2 -135 -38 -67 -132 -154 -269 -248 -140 -97 -182 -150
-154 -194 22 -35 142 -43 260 -18 106 22 181 50 362 135 91 43 180 83 199 89
45 15 116 14 128 -1 5 -7 15 -54 21 -105 24 -181 119 -409 195 -464 121 -88
260 48 274 268 7 102 -4 147 -69 287 -94 204 -76 282 74 321 29 8 137 21 240
30 308 25 431 57 441 112 13 66 18 260 27 993 10 822 16 957 55 1385 26 287
61 772 95 1330 25 415 56 818 75 985 30 256 44 390 60 565 26 292 71 564 141
849 92 375 64 715 -81 983 -61 112 -100 213 -120 308 -13 65 -16 139 -14 419
1 314 0 351 -21 466 -58 324 -135 449 -284 458 -33 2 -81 -2 -106 -8 -25 -7
-71 -15 -103 -17 -48 -4 -67 0 -120 25 -76 35 -177 111 -290 217 l-85 81 8
249 c12 329 20 443 33 482 7 17 32 47 57 65 198 149 45 625 -263 822 -150 96
-446 141 -662 101z m1566 -3783 c10 -38 51 -154 92 -258 l76 -190 -29 -252
c-16 -138 -34 -327 -41 -419 -6 -93 -15 -172 -19 -177 -15 -15 -38 38 -131
294 -133 371 -141 401 -142 545 0 99 4 139 27 230 48 189 96 295 134 295 13 0
21 -18 33 -68z m-1802 -148 c49 -63 85 -249 79 -410 -3 -88 -8 -117 -27 -152
-32 -63 -54 -54 -64 25 -4 33 -21 105 -37 159 -53 173 -61 285 -25 371 17 41
45 43 74 7z"/>
<path d="M2430 12230 c-236 -30 -436 -144 -621 -353 -153 -173 -229 -315 -229
-426 0 -75 34 -168 96 -267 32 -49 74 -118 95 -153 32 -53 52 -74 121 -120 45
-31 88 -67 94 -81 7 -14 19 -42 28 -63 17 -39 46 -58 123 -77 77 -19 79 -55
14 -199 -22 -48 -43 -104 -46 -124 -14 -72 -128 -144 -292 -186 -90 -24 -170
-28 -298 -17 l-90 8 -95 -77 c-52 -43 -130 -102 -172 -132 -43 -30 -95 -75
-117 -100 -27 -30 -110 -183 -246 -452 -149 -295 -235 -452 -312 -572 -243
-374 -285 -523 -199 -704 62 -130 186 -254 522 -525 226 -182 294 -248 294
-287 0 -15 -17 -91 -39 -168 -47 -173 -49 -183 -160 -755 -244 -1256 -280
-1472 -300 -1795 -10 -157 -15 -189 -46 -330 -8 -38 -20 -128 -25 -200 -6 -71
-17 -168 -25 -215 -17 -102 -30 -265 -51 -625 -16 -291 -38 -421 -95 -579 -28
-78 -52 -207 -65 -360 -5 -59 -14 -93 -36 -133 -21 -40 -32 -78 -39 -141 -5
-48 -20 -127 -34 -177 -13 -49 -29 -121 -35 -160 -6 -41 -28 -107 -52 -158
-57 -126 -67 -170 -78 -362 -5 -93 -12 -197 -16 -230 -6 -55 -4 -63 19 -91 14
-17 53 -45 86 -62 80 -43 192 -125 298 -217 239 -209 344 -231 1303 -276 l455
-21 60 -62 c33 -35 87 -80 119 -100 134 -86 305 -129 362 -91 25 16 26 20 22
84 -6 76 -41 168 -69 176 -10 4 -19 10 -19 14 0 14 99 62 222 107 325 120 452
203 514 338 41 91 47 175 30 473 -9 148 -18 315 -21 373 -6 100 -38 551 -49
690 -3 36 -10 814 -15 1730 -11 1865 -22 2345 -67 2810 -22 235 -49 368 -99
494 -58 149 -69 210 -62 359 10 222 87 429 274 740 143 237 219 438 269 717
27 148 25 455 -4 580 -29 125 -89 247 -147 297 -76 68 -147 78 -260 38 -38
-14 -82 -25 -96 -25 -84 0 -213 74 -256 147 -20 35 -24 52 -19 83 4 26 1 54
-10 82 -9 24 -22 59 -29 78 -28 75 15 110 155 121 114 10 171 33 194 77 8 16
20 65 26 111 18 134 44 204 95 257 25 25 48 57 51 71 11 42 -4 121 -33 174
l-27 51 18 68 c9 38 22 113 26 167 10 104 8 100 79 146 64 42 76 68 76 170 0
86 -3 97 -37 167 -41 85 -105 157 -163 185 -32 15 -66 19 -170 21 -71 1 -191
12 -266 23 -163 24 -321 33 -409 21z m-957 -3579 c15 -6 40 -37 64 -78 22 -37
64 -106 93 -153 52 -85 241 -460 239 -476 -1 -13 -131 -123 -197 -167 -73 -49
-174 -97 -216 -104 -51 -8 -110 29 -211 131 -181 181 -335 427 -335 532 0 72
154 197 334 270 118 48 186 61 229 45z"/>
</g>
</svg>
